<?xml version="1.0" encoding="iso-8859-1"?>
<!-- Generator: Adobe Illustrator 20.1.0, SVG Export Plug-In . SVG Version: 6.00 Build 0)  -->
<svg xmlns="http://www.w3.org/2000/svg" xmlns:xlink="http://www.w3.org/1999/xlink" version="1.1" id="&#1057;&#1083;&#1086;&#1081;_1" x="0px" y="0px" viewBox="0 0 64 64" style="enable-background:new 0 0 64 64;" xml:space="preserve">
<linearGradient id="SVGID_1__52589" gradientUnits="userSpaceOnUse" x1="31.9998" y1="8.3333" x2="31.9998" y2="56.338" spreadMethod="reflect">
	<stop offset="0" style="stop-color:#1A6DFF"/>
	<stop offset="1" style="stop-color:#C822FF"/>
</linearGradient>
<path style="fill:url(#SVGID_1__52589);" d="M58,27.5c0-1.537-0.777-2.895-1.957-3.707c0.89-0.822,1.457-1.989,1.457-3.293  c0-2.405-1.901-4.358-4.276-4.478C53.712,15.303,54,14.435,54,13.5c0-2.481-2.019-4.5-4.5-4.5H21c-1.347,0-2.565,0.541-3.465,1.41  C17.003,9.566,16.069,9,15,9H9c-1.654,0-3,1.346-3,3v24c0,1.654,1.346,3,3,3h6c1.302,0,2.402-0.838,2.816-2H18c1.654,0,3,1.346,3,3  v9.5c0,3.032,2.468,5.5,5.5,5.5s5.5-2.468,5.5-5.5V40c0-0.552,0.449-1,1-1h19.5c2.481,0,4.5-2.019,4.5-4.5  c0-1.211-0.486-2.307-1.267-3.117C57.08,30.605,58,29.165,58,27.5z M16,36c0,0.552-0.448,1-1,1H9c-0.552,0-1-0.448-1-1v-1h4v-2H8v-2  h4v-2H8v-2h4v-2H8V12c0-0.552,0.449-1,1-1h6c0.552,0,1,0.448,1,1v2v1V36z M52.5,37H33c-1.653,0-3,1.346-3,3v9.5  c0,1.93-1.57,3.5-3.5,3.5S23,51.43,23,49.5V40c0-2.756-2-5-5-5V15v-1c0-1.654,1.346-3,3-3h28.5c1.379,0,2.5,1.121,2.5,2.5  S50.878,16,49.5,16H43h-1v2h1H49.5H53c1.379,0,2.5,1.121,2.5,2.5S54.378,23,53,23H45h-1v2h1H53h0.5c1.379,0,2.5,1.121,2.5,2.5  S54.878,30,53.5,30h-1H46h-2v2h2H52.5c1.379,0,2.5,1.121,2.5,2.5S53.878,37,52.5,37z"/>
<linearGradient id="SVGID_2__52589" gradientUnits="userSpaceOnUse" x1="38" y1="8.3333" x2="38" y2="56.338" spreadMethod="reflect">
	<stop offset="0" style="stop-color:#1A6DFF"/>
	<stop offset="1" style="stop-color:#C822FF"/>
</linearGradient>
<rect x="37" y="29" style="fill:url(#SVGID_2__52589);" width="2" height="4"/>
<linearGradient id="SVGID_3__52589" gradientUnits="userSpaceOnUse" x1="38" y1="8.3333" x2="38" y2="56.338" spreadMethod="reflect">
	<stop offset="0" style="stop-color:#1A6DFF"/>
	<stop offset="1" style="stop-color:#C822FF"/>
</linearGradient>
<rect x="37" y="22" style="fill:url(#SVGID_3__52589);" width="2" height="4"/>
<linearGradient id="SVGID_4__52589" gradientUnits="userSpaceOnUse" x1="38" y1="8.3333" x2="38" y2="56.338" spreadMethod="reflect">
	<stop offset="0" style="stop-color:#1A6DFF"/>
	<stop offset="1" style="stop-color:#C822FF"/>
</linearGradient>
<rect x="37" y="15" style="fill:url(#SVGID_4__52589);" width="2" height="4"/>
<linearGradient id="SVGID_5__52589" gradientUnits="userSpaceOnUse" x1="12" y1="12.5" x2="12" y2="17.6345" spreadMethod="reflect">
	<stop offset="0" style="stop-color:#6DC7FF"/>
	<stop offset="1" style="stop-color:#E6ABFF"/>
</linearGradient>
<path style="fill:url(#SVGID_5__52589);" d="M14,14c0-0.552-0.448-1-1-1h-2c-0.552,0-1,0.448-1,1v2c0,0.552,0.448,1,1,1h2  c0.552,0,1-0.448,1-1V14z"/>
</svg>
